<mxfile host="app.diagrams.net" modified="2024-01-29T14:37:00.179Z" agent="Mozilla/5.0 (X11; Linux x86_64; rv:101.0) Gecko/20100101 Firefox/101.0" etag="P-zwpYf7jkqnrFIZq4ci" version="23.0.2" type="github">
  <diagram id="R2lEEEUBdFMjLlhIrx00" name="Page-1">
    <mxGraphModel dx="2155" dy="1151" grid="1" gridSize="10" guides="1" tooltips="1" connect="1" arrows="1" fold="1" page="1" pageScale="1" pageWidth="1100" pageHeight="850" math="0" shadow="0" extFonts="Permanent Marker^https://fonts.googleapis.com/css?family=Permanent+Marker">
      <root>
        <mxCell id="0" />
        <mxCell id="1" parent="0" />
        <mxCell id="DScznVBmFYFwctLMItq8-8" value="" style="group" vertex="1" connectable="0" parent="1">
          <mxGeometry width="1090" height="850" as="geometry" />
        </mxCell>
        <mxCell id="DScznVBmFYFwctLMItq8-6" value="" style="rounded=0;whiteSpace=wrap;html=1;strokeColor=none;fillColor=#000000;" vertex="1" parent="DScznVBmFYFwctLMItq8-8">
          <mxGeometry width="1090" height="850" as="geometry" />
        </mxCell>
        <mxCell id="WfyBjO2fw1t2vnp315bt-13" value="案件类型" style="rounded=1;fillColor=#647687;strokeColor=#314354;shadow=1;fontStyle=1;fontSize=20;fontColor=#ffffff;glass=0;gradientColor=none;" parent="DScznVBmFYFwctLMItq8-8" vertex="1">
          <mxGeometry x="20" y="140" width="200" height="60" as="geometry" />
        </mxCell>
        <mxCell id="WfyBjO2fw1t2vnp315bt-17" value="民事案件" style="rounded=1;fillColor=#10739E;strokeColor=none;shadow=1;gradientColor=none;fontStyle=1;fontColor=#FFFFFF;fontSize=14;" parent="DScznVBmFYFwctLMItq8-8" vertex="1">
          <mxGeometry x="20" y="530" width="200" height="60" as="geometry" />
        </mxCell>
        <mxCell id="WfyBjO2fw1t2vnp315bt-64" style="edgeStyle=orthogonalEdgeStyle;rounded=0;orthogonalLoop=1;jettySize=auto;html=1;exitX=0.5;exitY=1;exitDx=0;exitDy=0;entryX=0.5;entryY=0;entryDx=0;entryDy=0;fontSize=16;strokeWidth=5;strokeColor=#FFFFFF;" parent="DScznVBmFYFwctLMItq8-8" source="WfyBjO2fw1t2vnp315bt-13" target="WfyBjO2fw1t2vnp315bt-17" edge="1">
          <mxGeometry relative="1" as="geometry" />
        </mxCell>
        <mxCell id="WfyBjO2fw1t2vnp315bt-99" style="edgeStyle=orthogonalEdgeStyle;rounded=0;orthogonalLoop=1;jettySize=auto;html=1;exitX=1;exitY=0.5;exitDx=0;exitDy=0;strokeColor=#FFFFFF;strokeWidth=5;entryX=0.002;entryY=0.44;entryDx=0;entryDy=0;entryPerimeter=0;" parent="DScznVBmFYFwctLMItq8-8" source="WfyBjO2fw1t2vnp315bt-13" edge="1" target="WfyBjO2fw1t2vnp315bt-73">
          <mxGeometry relative="1" as="geometry">
            <mxPoint x="290" y="170" as="targetPoint" />
            <Array as="points" />
          </mxGeometry>
        </mxCell>
        <mxCell id="WfyBjO2fw1t2vnp315bt-100" style="edgeStyle=orthogonalEdgeStyle;rounded=0;orthogonalLoop=1;jettySize=auto;html=1;exitX=1;exitY=0.5;exitDx=0;exitDy=0;entryX=0.003;entryY=0.21;entryDx=0;entryDy=0;entryPerimeter=0;strokeColor=#FFFFFF;strokeWidth=3;dashed=1;dashPattern=1 1;" parent="DScznVBmFYFwctLMItq8-8" source="WfyBjO2fw1t2vnp315bt-17" target="WfyBjO2fw1t2vnp315bt-89" edge="1">
          <mxGeometry relative="1" as="geometry" />
        </mxCell>
        <mxCell id="DScznVBmFYFwctLMItq8-2" value="" style="group;strokeColor=#FFFFFF;container=0;" vertex="1" connectable="0" parent="DScznVBmFYFwctLMItq8-8">
          <mxGeometry x="590" y="500" width="450" height="290" as="geometry" />
        </mxCell>
        <mxCell id="DScznVBmFYFwctLMItq8-3" value="" style="group;strokeColor=#FFFFFF;container=0;" vertex="1" connectable="0" parent="DScznVBmFYFwctLMItq8-8">
          <mxGeometry x="300" y="30" width="710" height="320" as="geometry" />
        </mxCell>
        <mxCell id="WfyBjO2fw1t2vnp315bt-98" style="edgeStyle=orthogonalEdgeStyle;rounded=0;orthogonalLoop=1;jettySize=auto;html=1;exitX=1;exitY=0.5;exitDx=0;exitDy=0;entryX=0.5;entryY=0;entryDx=0;entryDy=0;strokeColor=#FFFFFF;dashed=1;dashPattern=1 1;strokeWidth=3;" parent="DScznVBmFYFwctLMItq8-8" source="WfyBjO2fw1t2vnp315bt-17" target="WfyBjO2fw1t2vnp315bt-82" edge="1">
          <mxGeometry relative="1" as="geometry">
            <Array as="points">
              <mxPoint x="275" y="560" />
            </Array>
          </mxGeometry>
        </mxCell>
        <mxCell id="WfyBjO2fw1t2vnp315bt-73" value="" style="whiteSpace=wrap;html=1;dashed=1;strokeWidth=3;strokeColor=#FFFFFF;container=0;fillColor=#000000;" parent="DScznVBmFYFwctLMItq8-8" vertex="1">
          <mxGeometry x="300" y="30" width="710" height="320" as="geometry" />
        </mxCell>
        <mxCell id="WfyBjO2fw1t2vnp315bt-14" value="行政案件" style="rounded=1;fillColor=#10739E;strokeColor=none;shadow=1;gradientColor=none;fontStyle=1;fontColor=#FFFFFF;fontSize=14;container=0;" parent="DScznVBmFYFwctLMItq8-8" vertex="1">
          <mxGeometry x="560" y="200" width="200" height="60" as="geometry" />
        </mxCell>
        <mxCell id="WfyBjO2fw1t2vnp315bt-15" value="管辖案件" style="rounded=1;fillColor=#10739E;strokeColor=none;shadow=1;gradientColor=none;fontStyle=1;fontColor=#FFFFFF;fontSize=14;container=0;" parent="DScznVBmFYFwctLMItq8-8" vertex="1">
          <mxGeometry x="560" y="40" width="200" height="60" as="geometry" />
        </mxCell>
        <mxCell id="WfyBjO2fw1t2vnp315bt-16" value="刑事案件" style="rounded=1;fillColor=#10739E;strokeColor=none;shadow=1;gradientColor=none;fontStyle=1;fontColor=#FFFFFF;fontSize=14;container=0;" parent="DScznVBmFYFwctLMItq8-8" vertex="1">
          <mxGeometry x="560" y="120" width="200" height="60" as="geometry" />
        </mxCell>
        <mxCell id="WfyBjO2fw1t2vnp315bt-66" value="国家赔偿与司法救助案件" style="rounded=1;fillColor=#10739E;strokeColor=none;shadow=1;gradientColor=none;fontStyle=1;fontColor=#FFFFFF;fontSize=14;container=0;" parent="DScznVBmFYFwctLMItq8-8" vertex="1">
          <mxGeometry x="560" y="280" width="200" height="60" as="geometry" />
        </mxCell>
        <mxCell id="WfyBjO2fw1t2vnp315bt-67" value="区际司法救助案件" style="rounded=1;fillColor=#6A9153;strokeColor=none;shadow=1;gradientColor=none;fontStyle=1;fontColor=#FFFFFF;fontSize=14;container=0;" parent="DScznVBmFYFwctLMItq8-8" vertex="1">
          <mxGeometry x="310" y="40" width="200" height="60" as="geometry" />
        </mxCell>
        <mxCell id="WfyBjO2fw1t2vnp315bt-68" value="国际司法协助案件" style="rounded=1;fillColor=#6A9153;strokeColor=none;shadow=1;gradientColor=none;fontStyle=1;fontColor=#FFFFFF;fontSize=14;container=0;" parent="DScznVBmFYFwctLMItq8-8" vertex="1">
          <mxGeometry x="310" y="117" width="200" height="60" as="geometry" />
        </mxCell>
        <mxCell id="WfyBjO2fw1t2vnp315bt-69" value="司法制裁案件" style="rounded=1;fillColor=#6A9153;strokeColor=none;shadow=1;gradientColor=none;fontStyle=1;fontColor=#FFFFFF;fontSize=14;container=0;" parent="DScznVBmFYFwctLMItq8-8" vertex="1">
          <mxGeometry x="310" y="193" width="200" height="60" as="geometry" />
        </mxCell>
        <mxCell id="WfyBjO2fw1t2vnp315bt-70" value="非诉保全审查案件" style="rounded=1;fillColor=#6A9153;strokeColor=none;shadow=1;gradientColor=none;fontStyle=1;fontColor=#FFFFFF;fontSize=14;container=0;" parent="DScznVBmFYFwctLMItq8-8" vertex="1">
          <mxGeometry x="310" y="270" width="200" height="60" as="geometry" />
        </mxCell>
        <mxCell id="WfyBjO2fw1t2vnp315bt-71" value="执行类案件" style="rounded=1;fillColor=#10739E;strokeColor=none;shadow=1;gradientColor=none;fontStyle=1;fontColor=#FFFFFF;fontSize=14;container=0;" parent="DScznVBmFYFwctLMItq8-8" vertex="1">
          <mxGeometry x="795" y="40" width="200" height="60" as="geometry" />
        </mxCell>
        <mxCell id="WfyBjO2fw1t2vnp315bt-72" value="强制清算与破产案件" style="rounded=1;fillColor=#10739E;strokeColor=none;shadow=1;gradientColor=none;fontStyle=1;fontColor=#FFFFFF;fontSize=14;container=0;" parent="DScznVBmFYFwctLMItq8-8" vertex="1">
          <mxGeometry x="800" y="120" width="200" height="60" as="geometry" />
        </mxCell>
        <mxCell id="WfyBjO2fw1t2vnp315bt-91" value="" style="group;fillColor=#000000;container=0;" parent="DScznVBmFYFwctLMItq8-8" vertex="1" connectable="0">
          <mxGeometry x="590" y="500" width="450" height="290" as="geometry" />
        </mxCell>
        <mxCell id="WfyBjO2fw1t2vnp315bt-89" value="" style="rounded=0;whiteSpace=wrap;html=1;strokeWidth=3;dashed=1;dashPattern=1 1;strokeColor=#FFFFFF;container=0;gradientColor=none;fillColor=#000000;" parent="DScznVBmFYFwctLMItq8-8" vertex="1">
          <mxGeometry x="590" y="500" width="450" height="290" as="geometry" />
        </mxCell>
        <mxCell id="WfyBjO2fw1t2vnp315bt-19" value="民事一审案件（民初）" style="rounded=1;fillColor=#10739E;strokeColor=none;shadow=1;gradientColor=none;fontStyle=1;fontColor=#FFFFFF;fontSize=14;container=0;" parent="DScznVBmFYFwctLMItq8-8" vertex="1">
          <mxGeometry x="600" y="510" width="200" height="60" as="geometry" />
        </mxCell>
        <mxCell id="WfyBjO2fw1t2vnp315bt-76" value="民事二审案件（民终）" style="rounded=1;fillColor=#10739E;strokeColor=none;shadow=1;gradientColor=none;fontStyle=1;fontColor=#FFFFFF;fontSize=14;container=0;" parent="DScznVBmFYFwctLMItq8-8" vertex="1">
          <mxGeometry x="600" y="615" width="200" height="60" as="geometry" />
        </mxCell>
        <mxCell id="WfyBjO2fw1t2vnp315bt-85" value="第三人撤销之诉案件（民撤）" style="rounded=1;fillColor=#10739E;strokeColor=none;shadow=1;gradientColor=none;fontStyle=1;fontColor=#FFFFFF;fontSize=14;container=0;" parent="DScznVBmFYFwctLMItq8-8" vertex="1">
          <mxGeometry x="830" y="510" width="200" height="60" as="geometry" />
        </mxCell>
        <mxCell id="WfyBjO2fw1t2vnp315bt-86" value="申请支付令审查案件（民督）" style="rounded=1;fillColor=#10739E;strokeColor=none;shadow=1;gradientColor=none;fontStyle=1;fontColor=#FFFFFF;fontSize=14;container=0;" parent="DScznVBmFYFwctLMItq8-8" vertex="1">
          <mxGeometry x="830" y="720" width="200" height="60" as="geometry" />
        </mxCell>
        <mxCell id="WfyBjO2fw1t2vnp315bt-87" value="调解协议&#xa;司法确认案件（民特）" style="rounded=1;fillColor=#10739E;strokeColor=none;shadow=1;gradientColor=none;fontStyle=1;fontColor=#FFFFFF;fontSize=14;container=0;" parent="DScznVBmFYFwctLMItq8-8" vertex="1">
          <mxGeometry x="600" y="720" width="200" height="60" as="geometry" />
        </mxCell>
        <mxCell id="WfyBjO2fw1t2vnp315bt-82" value="" style="rounded=0;whiteSpace=wrap;html=1;strokeWidth=3;dashed=1;strokeColor=#FFFFFF;container=0;dashPattern=1 1;fillColor=#000000;" parent="DScznVBmFYFwctLMItq8-8" vertex="1">
          <mxGeometry x="50" y="630" width="450" height="160" as="geometry" />
        </mxCell>
        <mxCell id="WfyBjO2fw1t2vnp315bt-77" value="民事依职权&#xa;再审审查案件（民监）" style="rounded=1;fillColor=#10739E;strokeColor=none;shadow=1;gradientColor=none;fontStyle=1;fontColor=#FFFFFF;fontSize=14;container=0;" parent="DScznVBmFYFwctLMItq8-8" vertex="1">
          <mxGeometry x="60" y="640" width="200" height="60" as="geometry" />
        </mxCell>
        <mxCell id="WfyBjO2fw1t2vnp315bt-78" value="民事申请&#xa;再审审查案件（民申）" style="rounded=1;fillColor=#10739E;strokeColor=none;shadow=1;gradientColor=none;fontStyle=1;fontColor=#FFFFFF;fontSize=14;container=0;" parent="DScznVBmFYFwctLMItq8-8" vertex="1">
          <mxGeometry x="60" y="716" width="200" height="60" as="geometry" />
        </mxCell>
        <mxCell id="WfyBjO2fw1t2vnp315bt-79" value="民事抗诉&#xa;再审审查案件（民抗）" style="rounded=1;fillColor=#10739E;strokeColor=none;shadow=1;gradientColor=none;fontStyle=1;fontColor=#FFFFFF;fontSize=14;container=0;" parent="DScznVBmFYFwctLMItq8-8" vertex="1">
          <mxGeometry x="282" y="640" width="200" height="60" as="geometry" />
        </mxCell>
        <mxCell id="WfyBjO2fw1t2vnp315bt-80" value="民事再审案件（民再）" style="rounded=1;fillColor=#10739E;strokeColor=none;shadow=1;gradientColor=none;fontStyle=1;fontColor=#FFFFFF;fontSize=14;container=0;" parent="DScznVBmFYFwctLMItq8-8" vertex="1">
          <mxGeometry x="282" y="716" width="200" height="60" as="geometry" />
        </mxCell>
      </root>
    </mxGraphModel>
  </diagram>
</mxfile>
